<svg xmlns="http://www.w3.org/2000/svg" viewBox="542.866 70.43 184.692 176.95" width="184.692" height="176.95">
  <path fill="#121212" fill-rule="evenodd" d="M631.32 247.372c-2.107-.023-5.073-.16-6.59-.307s-3.617-.513-4.667-.817-2.697-1-3.66-1.547-2.55-1.727-3.527-2.62c-1.777-1.623-1.777-1.623-7.417-2.497-3.103-.483-7.377-1.24-9.5-1.687a140 140 0 0 1-7.497-1.833c-2-.56-4.84-1.583-6.307-2.273-1.47-.69-3.217-1.77-3.887-2.403-.76-.717-1.363-1.697-1.61-2.603-.213-.797-.34-2.537-.28-3.863.103-2.343.08-2.423-.793-2.81-.493-.22-2.1-1.667-3.57-3.217-1.467-1.553-3.743-4.427-5.053-6.39-1.313-1.96-2.827-4.53-3.367-5.707-.537-1.173-1.067-2.573-1.173-3.103-.103-.53-.463-1.11-.793-1.287s-1.13-.32-1.777-.32-1.973-.3-2.95-.663c-1.017-.38-2.29-1.203-2.977-1.917-.66-.69-1.443-1.737-1.743-2.33-.297-.593-.633-1.743-.743-2.553s-.013-2.253.217-3.21c.277-1.163.91-2.347 1.913-3.58 1.5-1.84 1.5-1.84.62-5.377-.483-1.943-1.117-5.337-1.407-7.537-.287-2.2-.593-4.62-.673-5.377-.15-1.357-.17-1.377-1.72-1.587-.863-.117-2.337-.567-3.277-1.003-.937-.437-2.08-1.3-2.54-1.913-.46-.617-1.027-1.487-1.257-1.933s-.433-1.797-.447-3c-.02-1.637.153-2.53.69-3.55.397-.753 1.28-1.86 1.967-2.46.683-.6 1.78-1.32 2.437-1.597.653-.28 2.01-.597 3.013-.71 1.823-.203 1.823-.203 2.44-2.37.337-1.19 1.007-3.493 1.487-5.113.57-1.923.767-3.09.563-3.36-.173-.223-.8-1.14-1.397-2.033-.807-1.207-1.083-1.993-1.083-3.07 0-.793.203-1.93.45-2.523s.993-1.553 1.653-2.133a5.25 5.25 0 0 1 2.713-1.28c.833-.127 2-.137 2.597-.027 1.08.2 1.097.187 2.573-2.707.817-1.6 3.33-5.67 5.583-9.043s4.099-6.327 4.099-6.563-.563-.61-1.25-.833-1.927-.747-2.75-1.163c-.823-.42-2.123-1.41-2.89-2.207-.763-.793-1.737-2.12-2.167-2.943-.597-1.153-.803-2.17-.893-4.413-.107-2.663-.03-3.093.873-5.03.547-1.167 1.647-2.747 2.45-3.523.803-.77 2.433-1.883 3.62-2.47 1.887-.93 2.497-1.063 4.84-1.063 2.357 0 2.95.133 4.903 1.093 1.577.777 2.81 1.733 4.233 3.287 2.007 2.19 2.007 2.19 3.77 1.1.967-.597 3.26-1.9 5.093-2.89 1.833-.993 5.06-2.523 7.167-3.403 2.107-.877 5.437-2.063 7.393-2.637 1.96-.57 4.86-1.327 6.443-1.68s2.94-.703 3.013-.773c.073-.073-.027-.71-.223-1.417-.193-.707-.25-1.967-.123-2.807.123-.84.5-2.053.833-2.7.333-.643 1.107-1.653 1.717-2.237.613-.587 1.787-1.37 2.613-1.743s2.183-.683 3.017-.687c.977-.003 2.137.3 3.243.853.95.473 2.11 1.317 2.58 1.877.473.56 1.133 1.56 1.47 2.223s.717 2.123.843 3.24c.233 2.037.233 2.037 5.623 2.24 2.963.11 6.89.437 8.723.723 1.833.29 5.06.91 7.167 1.38 2.107.467 6.007 1.567 8.667 2.443 2.66.873 6.633 2.393 8.833 3.37 2.2.98 5.2 2.443 6.667 3.25 1.467.81 3.61 2.127 4.767 2.933 1.153.803 2.273 1.46 2.49 1.46.213 0 1.143-.74 2.067-1.647.923-.903 2.45-2.03 3.397-2.503.947-.47 2.473-1 3.39-1.173 1.073-.203 2.403-.197 3.733.017 1.137.183 2.76.687 3.61 1.12.85.43 2.563 1.84 3.803 3.13 1.243 1.287 2.593 3.067 3 3.95.62 1.337.743 2.193.743 5.107 0 3.143-.093 3.69-.913 5.363-.503 1.023-1.63 2.603-2.5 3.51-.873.907-2.323 1.993-3.223 2.413s-2.25.873-3 1.007c-1.363.24-1.363.24-1.313 1.757.027.837.307 2.017.62 2.623s1.617 2.393 2.893 3.967c1.273 1.573 2.967 3.837 3.757 5.027s2.26 3.667 3.267 5.5c1.003 1.833 2.307 4.557 2.9 6.05 1.073 2.72 1.073 2.72 2.59 2.05.833-.37 2.373-.75 3.423-.843 1.307-.12 2.443.003 3.6.387.987.33 2.253 1.107 3.037 1.867.737.713 1.707 2.023 2.153 2.907s.917 2.297 1.043 3.143c.16 1.057.06 2.14-.32 3.443-.413 1.42-.95 2.3-2.127 3.477-1 .997-2.177 1.78-3.207 2.13-.897.307-1.99.557-2.427.557-.44 0-1.087.157-1.443.347-.47.25-.643.7-.643 1.657 0 .72-.453 3.957-1.003 7.187-1.003 5.877-1.003 5.877.973 7.78 1.457 1.403 2.037 2.227 2.207 3.133.127.677.133 1.757.01 2.403-.12.647-.67 1.69-1.223 2.317-.57.65-1.733 1.417-2.687 1.773-1.67.623-1.683.637-2.74 3.447-.583 1.553-1.483 3.54-2 4.42-.513.88-1.55 2.2-2.303 2.93s-1.823 1.557-2.383 1.837-1.543 1.01-2.183 1.623-2.03 1.493-3.083 1.96c-1.053.463-1.917 1-1.917 1.193 0 .19-.46 1.543-1.023 3.007-.563 1.46-1.907 3.997-2.98 5.633-1.077 1.637-2.92 4.083-4.1 5.433-2.143 2.46-2.143 2.46-1.02 3.683.947 1.037 1.123 1.477 1.12 2.817 0 .873-.157 2.153-.35 2.847-.193.69-.81 1.783-1.37 2.42-.563.64-1.963 1.693-3.117 2.337-1.15.643-3.703 1.777-5.67 2.517-1.97.743-5.61 1.86-8.09 2.487-2.48.623-6.847 1.517-9.703 1.987-2.86.467-5.53.99-5.937 1.16s-1.537.957-2.503 1.747c-.97.79-2.567 1.783-3.55 2.203-.98.423-2.803.98-4.047 1.24s-4.337.62-6.877.803-6.343.317-8.45.29m8.62-9.163c4.1-.087 9.873-.363 12.833-.617 2.96-.25 7.03-.697 9.047-.987 2.017-.293 4.417-.693 5.333-.89.917-.2 2.717-.683 4-1.077 2.333-.717 2.333-.717-1.237-.9-1.967-.1-3.653-.26-3.747-.357-.097-.097 2.337-.743 5.403-1.437 3.07-.697 7.23-1.763 9.247-2.373s4.65-1.557 5.85-2.103c1.487-.677 2.313-1.273 2.583-1.87.22-.48.4-1.063.4-1.297 0-.23-.213-.71-.47-1.063-.453-.62-.517-.6-1.657.573-.79.817-2.073 1.563-3.877 2.257-1.483.573-4.227 1.407-6.097 1.857-1.87.447-5.273 1.113-7.567 1.477s-6.19.887-8.667 1.16c-2.477.277-6.673.67-9.333.88-2.66.207-10.31.383-17 .393-6.69.007-14.417-.163-17.167-.38-2.75-.213-7.25-.617-10-.897-2.75-.277-7.55-.88-10.667-1.337-3.117-.46-7.017-1.147-8.667-1.53s-3.763-.96-4.697-1.28c-.933-.323-2.547-1-3.583-1.51-1.04-.507-2-.807-2.137-.67-.137.14.223.653.807 1.14.58.487 2.323 1.363 3.877 1.95s5.277 1.67 8.277 2.407 7.183 1.643 9.29 2.013 6.91 1.04 10.667 1.487 9.353 1 12.437 1.23c3.37.25 5.407.523 5.107.693-.273.15-3.17.423-6.437.6-3.267.18-6.663.42-7.543.533-.883.113-1.537.273-1.457.357.083.083 2.157.377 4.607.657s6.78.633 9.62.787c2.84.157 8.52.21 12.62.123m-62.457-16.79c.067 0 1.223-.43 2.563-.953a175 175 0 0 1 4.277-1.603c1.24-.44 1.793-.807 1.71-1.13-.07-.263-.203-3.74-.297-7.727-.173-7.247-.173-7.247-1.907-8.04-.953-.437-2.057-1.247-2.45-1.803-.397-.553-.837-1.57-.98-2.253-.23-1.117-.38-1.263-1.417-1.373a337 337 0 0 1-4.98-.62c-2.1-.273-4.056-.498-4.349-.498-.31 0-.717.517-.977 1.25-.26.723-1.343 2.117-2.573 3.307-2.123 2.06-2.123 2.06-1.487 3.667.353.887 1.177 2.553 1.83 3.707.653 1.157 1.947 3.193 2.873 4.533.923 1.34 3.113 4.033 4.86 5.987s3.233 3.55 3.303 3.55m109.007-.703c.183-.003 1.083-.927 2-2.043.917-1.12 2.55-3.247 3.63-4.73 1.083-1.48 2.527-3.89 3.213-5.357s1.353-3.003 1.477-3.417c.18-.6.093-.75-.43-.75-.36 0-1.63-.3-2.823-.67-1.53-.473-2.657-1.107-3.823-2.157-1.03-.927-1.933-2.14-2.4-3.223a9.7 9.7 0 0 1-.757-3.593c-.003-1.02.173-2.513.393-3.313.25-.907.977-2.07 1.927-3.087.92-.983 2.397-2.053 3.723-2.7 1.213-.587 2.313-1.223 2.447-1.413.137-.19.25-2.84.25-5.893.007-5.553.007-5.553-1.41-6.387-.78-.457-1.767-1.207-2.193-1.667-.43-.457-.91-1.41-1.07-2.113-.187-.807-.163-1.777.06-2.61.223-.837.877-1.823 1.767-2.667.777-.737 1.723-1.567 2.1-1.84.637-.463.667-.68.4-3-.16-1.373-.53-3.7-.827-5.167-.293-1.467-1.137-4.517-1.873-6.78-.733-2.263-2.237-5.917-3.34-8.12-2.007-4.007-2.007-4.007-3.39-3.727-.76.157-2.323.267-3.477.247-1.687-.027-2.393-.22-3.657-1.003-.947-.583-1.963-1.613-2.573-2.597-.877-1.417-1.01-1.947-1.01-3.993 0-1.297.097-2.81.213-3.36.2-.94.043-1.133-2.667-3.273-1.583-1.253-4.813-3.563-7.18-5.14-4.18-2.783-4.327-2.85-5.333-2.44-.567.233-1.82.73-2.783 1.103-1.75.677-1.75.677-1.75 4.743 0 4.07 0 4.07 1.673 5.48.92.773 1.997 2.037 2.397 2.8.553 1.063.757 2.153.863 4.6.077 1.763-.033 4.013-.243 5-.29 1.353-.71 2.127-1.717 3.15-.843.863-1.257 1.547-1.133 1.877.11.283.753.757 1.43 1.05s2.093.85 3.153 1.237c1.057.383 2.373 1.08 2.927 1.547.553.463 1.223 1.263 1.49 1.777.263.51.7 2.193.97 3.737.267 1.543.883 5.72 1.363 9.28.577 4.247.943 8.797 1.067 13.23.19 6.757.19 6.757-1.227 8.1-.93.887-1.66 1.313-2.13 1.247-.573-.083-.74-.373-.837-1.437-.063-.733.057-2.46.27-3.833.317-2.033.293-3.16-.117-6.043-.28-1.95-.767-4.95-1.083-6.667-.467-2.53-.617-2.933-.787-2.123-.117.55-.073 4.1.093 7.887.247 5.577.173 9.54-.387 20.833-.38 7.67-.773 16.72-.87 20.113-.127 4.29-.08 5.933.153 5.4.317-.72.467-.753 2.427-.557 1.147.12 4.157.507 6.687.863 2.53.353 6.28 1.08 8.333 1.613 2.053.53 4.26 1.197 4.9 1.477s1.317.507 1.5.5m-98.25-2.757c.32-.097 2.607-.473 5.083-.84s6.45-.83 8.833-1.027 5.233-.44 6.333-.533c2-.177 2-.177 1.893-21.24-.1-19.747-.063-21.397.583-26.34.38-2.9.69-6.793.69-8.65 0-2.11-.117-3.257-.313-3.06-.173.173-.943 3.09-1.713 6.483-1.28 5.63-1.413 6.643-1.517 11.647-.067 3.013-.257 5.62-.43 5.793-.17.17-.707.31-1.193.31-.55 0-1.317-.42-2.03-1.113-.637-.617-1.31-1.703-1.507-2.437-.253-.947-.253-2.243.007-4.513.2-1.753.507-4.537.68-6.187s.937-7.577 1.69-13.167c1.047-7.747 1.547-10.52 2.1-11.65.4-.813 1.11-1.76 1.577-2.097.467-.34 2.267-1.183 4-1.873 2.57-1.027 3.207-1.423 3.463-2.15.263-.743.083-1.34-1.1-3.643-1.123-2.19-1.45-3.23-1.603-5.087-.133-1.637-.027-2.98.36-4.5.31-1.21.967-2.677 1.487-3.32.51-.633 1.58-1.497 2.373-1.917a6.7 6.7 0 0 1 3.017-.763c1.227 0 1.94.243 3.193 1.083.963.647 1.957 1.69 2.457 2.583.763 1.37.837 1.847.833 5.5 0 3.48-.097 4.18-.733 5.373-.403.753-1.133 1.847-1.623 2.43s-1.47 1.357-2.183 1.717c-.71.363-1.29.803-1.29.98s.37.413.82.527 2.607.14 2.987.14c.283 0 2.107.697 4.057 1.55 2.73 1.197 3.687 1.79 4.177 2.583.35.57.773 1.557.943 2.2s.55 4.243.847 8c.293 3.757.667 11 .827 16.09.173 5.487.17 9.687-.01 10.31-.163.577-.707 1.473-1.203 1.99-.577.603-1.243.943-1.85.943-.52 0-1.02.19-1.107.42-.09.23-.047 8.187.093 17.68.253 17.263.253 17.263 6.42 17.333 6.167.067 6.167.067 6.127-.767-.023-.46-.23-7.357-.463-15.333-.24-8.253-.323-17.513-.19-21.5.127-3.85.26-7.273.297-7.61.047-.467-.45-.807-2.103-1.43-1.19-.45-2.54-1.193-3-1.65-.77-.77-.83-1.047-.783-3.737.04-2.173.397-4.287 1.427-8.38.757-3.013 1.647-6.087 1.977-6.833.33-.75 1.14-1.833 1.797-2.41s2.037-1.363 3.07-1.75c1.03-.383 2.067-.7 2.307-.7s.7-.29 1.023-.647c.567-.627.527-.707-1.23-2.42-1.477-1.443-1.893-2.103-2.243-3.56-.273-1.137-.367-2.903-.257-4.83.097-1.673.407-3.58.69-4.237.287-.657 1.163-1.823 1.953-2.593.79-.773 2.15-1.657 3.02-1.97 1.583-.567 1.583-.567 1.583-4.483s0-3.917-1.947-4.9c-1.07-.54-2.41-1.513-2.98-2.16-.57-.65-1.193-1.75-1.387-2.44-.193-.693-.35-1.437-.35-1.653-.003-.217-.267-.473-.587-.57-.32-.1-1.853-.333-3.407-.523s-5.187-.347-8.074-.347c-5.25 0-5.25 0-6.12 1.837-.487 1.033-1.38 2.227-2.04 2.73-.88.67-1.667.93-3.123 1.037-1.533.11-2.277-.017-3.473-.597-.967-.467-1.903-1.287-2.553-2.23-.61-.89-1.203-1.42-1.47-1.32-.247.097-1.047.333-1.78.533-.733.197-2.793.963-4.577 1.707-1.787.743-4.253 1.86-5.487 2.48s-4.02 2.323-6.193 3.787c-2.173 1.46-5.303 3.847-6.953 5.307s-3.67 3.44-4.487 4.407c-.82.963-1.907 2.293-2.42 2.953-.513.663-1.833 2.533-2.93 4.157s-1.997 3.137-1.997 3.36c0 .22.39.767.867 1.213.477.443 1.15 1.363 1.5 2.043.377.737.633 1.92.633 2.933 0 .933-.21 2.1-.467 2.597-.26.493-.847 1.25-1.303 1.68-.46.427-1.41.973-2.117 1.217-1.28.44-1.28.44-1.493 3.553-.117 1.713-.23 5.913-.25 9.327-.037 6.213-.037 6.213.783 6.75.45.293 1.14.873 1.54 1.287.397.413 1 1.203 1.347 1.753.357.573.623 1.61.627 2.427 0 .787-.21 1.927-.463 2.537s-1.16 1.69-2.01 2.403c-1.547 1.293-1.547 1.293-1.513 8.42.033 7.04.043 7.133.83 7.92.437.437 1.127.793 1.53.793.463 0 1.373-.673 2.433-1.803 1.157-1.233 2.13-1.933 3.077-2.21.8-.233 1.907-.31 2.613-.177.81.153 1.713.713 2.643 1.643.91.91 1.54 1.913 1.767 2.813.213.843.247 1.89.08 2.623-.15.673-.56 1.613-.903 2.083-.347.473-1.343 1.233-2.21 1.693-1.583.833-1.583.833-1.42 8.5.09 4.217.173 7.713.19 7.773.013.057.287.027.607-.067m32.873-2.207c2.71-.167 2.71-.167 2.607-1.5-.057-.733-.477-4.56-.927-8.5-.453-3.94-1.127-10.167-1.493-13.833s-.76-7.04-.877-7.5c-.183-.747-.233-.697-.463.5-.143.733-.5 4.333-.797 8-.3 3.667-.753 8.633-1.017 11.037-.26 2.403-.573 6.023-.697 8.05-.203 3.35-.17 3.69.363 3.797.323.063 1.807.04 3.3-.05m33.97.277c.57.033 1.003-.143 1.123-.457.11-.283-.047-3.997-.347-8.25-.303-4.257-.693-10.287-.873-13.403s-.42-6.39-.53-7.27c-.11-.883-.26-1.547-.333-1.473s-.583 5.22-1.133 11.437c-.55 6.22-1.15 12.687-1.333 14.377s-.333 3.443-.333 3.897c0 .733.163.843 1.417.957.78.07 1.833.153 2.343.187m52.12-19.02c.233-.233 1.183-1.697 2.113-3.257s1.923-3.633 2.213-4.607c.287-.977.47-1.813.407-1.86a62 62 0 0 0-1.37-.84c-.693-.417-1.48-1.187-1.75-1.71-.273-.523-.493-1.76-.493-2.75 0-1.323.203-2.1.757-2.927.417-.617 1.28-1.46 1.917-1.867.64-.41 1.44-.943 1.783-1.187.507-.36.84-1.827 1.77-7.763 1.057-6.743 1.103-7.35.593-7.657-.307-.183-1.21-.74-2.007-1.233-.8-.497-1.9-1.52-2.447-2.277-.55-.753-1.163-2.183-1.37-3.173s-.273-2.457-.153-3.263c.12-.803.7-2.31 1.287-3.343 1.067-1.883 1.067-1.883-1.647-7.297-1.493-2.977-3.353-6.453-4.13-7.723-.78-1.27-2.51-3.743-3.84-5.5-1.333-1.753-2.74-3.47-3.123-3.813s-.843-1.093-1.017-1.667c-.177-.573-.413-1.74-.527-2.59-.203-1.503-.253-1.56-1.697-1.923-.82-.207-2.317-.74-3.327-1.187-1.057-.467-2.58-1.56-3.597-2.577-.967-.973-2.093-2.46-2.503-3.307-.407-.85-.907-2.477-1.107-3.623-.27-1.523-.267-2.687.007-4.343.203-1.243.46-2.487.567-2.767.137-.353-.373-.87-1.677-1.703-1.027-.657-3.197-1.943-4.817-2.86-1.623-.913-4.613-2.4-6.647-3.307s-5.57-2.257-7.857-3c-2.287-.747-5.63-1.723-7.427-2.177-1.797-.45-5.067-1.123-7.267-1.493-2.2-.373-5.65-.827-7.667-1.013s-5.028-.341-6.698-.341c-2.623 0-3.113.09-3.643.677-.337.373-1.103.98-1.703 1.353-.6.37-2.033.863-3.187 1.1-2.1.427-2.1.427-2.19 6.657s-.09 6.23 1.333 6.85c.783.34 1.813 1.05 2.29 1.577a20 20 0 0 1 1.42 1.783c.553.83.553.83 6.467.73 4.247-.07 6.71.047 8.747.413 2.463.443 2.877.45 3.167.03.183-.263.737-1.057 1.227-1.763.493-.707 1.51-1.71 2.257-2.23a6.4 6.4 0 0 1 3.003-1.1c.903-.087 2.153-.063 2.78.057.627.117 1.857.687 2.733 1.27 1.19.787 1.803 1.51 2.417 2.85.69 1.507.797 2.16.67 4.023-.083 1.223-.257 2.467-.39 2.767-.183.423.3.837 2.2 1.887 1.34.74 3.487 2.087 4.77 2.993 1.283.91 3.407 2.647 4.717 3.863s2.577 2.213 2.817 2.213c.237 0 1.017-.407 1.733-.903.99-.687 1.807-.933 3.403-1.037 1.153-.073 2.617.037 3.25.247.63.21 1.777.917 2.543 1.573.767.653 1.72 1.813 2.12 2.573.53 1.007.727 1.967.727 3.547-.003 1.68-.193 2.537-.86 3.813-.86 1.643-.86 1.643 1.377 6.007 1.227 2.397 2.703 5.783 3.28 7.52s1.42 4.737 1.873 6.66c.457 1.923.99 4.85 1.183 6.5.297 2.487.483 3.087 1.09 3.5.4.273 1.23.933 1.84 1.467.61.53 1.323 1.387 1.59 1.9s.483 1.67.483 2.567c0 1.15-.227 1.97-.757 2.76-.417.617-1.227 1.427-1.793 1.8-.57.37-1.263.823-1.54 1.007-.4.267-.54 1.49-.7 6.097-.183 5.277-.153 5.777.377 5.95.32.1 1.507.627 2.64 1.163a11.7 11.7 0 0 1 3.58 2.667c.967 1.073 1.703 2.303 2.023 3.383.277.933.503 2.467.503 3.41 0 .947.103 1.823.23 1.95s.42.037.65-.197m-117.747-1.343c.347-.043.793-.337.987-.65.28-.443.193-.743-.413-1.387-.423-.45-1.147-.913-1.603-1.03-.46-.113-1.04-.037-1.293.173-.39.323-.383.527.033 1.33.27.523.753 1.107 1.073 1.297s.867.31 1.217.267m-17.144-1.915c3.01 0 3.01 0 3.007-4.083 0-2.247-.097-5.537-.213-7.31-.207-3.123-.24-3.233-1.083-3.443-.477-.117-1.36-.447-1.96-.733-.62-.29-1.453-1.127-1.917-1.92-.513-.873-.823-1.917-.823-2.767 0-.753.16-1.79.353-2.303.197-.517.807-1.41 1.363-1.987.553-.573 1.573-1.3 2.26-1.61 1.253-.567 1.253-.567 1.473-5.59.12-2.763.217-6.95.217-9.3 0-4.27 0-4.27-.917-4.84-.503-.313-1.27-.88-1.7-1.257-.427-.38-1.013-1.137-1.297-1.683-.283-.543-.517-1.767-.517-2.717 0-1.163.227-2.087.693-2.847.383-.617 1.133-1.443 1.67-1.843.537-.397 1.71-.933 2.607-1.19 1.473-.427 1.72-.65 2.627-2.35.55-1.033 1.977-3.263 3.167-4.957 1.19-1.697 3.667-4.647 5.5-6.557s4.46-4.333 5.84-5.383 3.703-2.697 5.167-3.657 4.76-2.773 7.327-4.03c2.567-1.26 6.097-2.69 7.843-3.18 3.18-.89 3.18-.89 4.1-2.85.737-1.563 1.287-2.203 2.74-3.167 1.817-1.207 1.817-1.207 1.887-5.993.037-2.633.077-5.5.083-6.37.013-1.557-.01-1.593-1.653-2.49-.917-.5-1.99-.913-2.387-.92-.397-.003-2.307.367-4.243.827-1.937.457-4.987 1.297-6.78 1.87-1.79.57-4.833 1.7-6.757 2.513-1.923.81-5.75 2.653-8.5 4.09-5 2.617-5 2.617-5.007 5.407-.007 1.793-.223 3.407-.61 4.527-.347 1.007-1.24 2.453-2.12 3.437-.84.93-2.24 2.057-3.113 2.5-.873.44-2.507 1.06-3.63 1.37-1.907.53-2.083.663-2.693 2.043-.357.813-1.163 2.173-1.787 3.027s-2.167 3.123-3.433 5.05a238 238 0 0 0-4.227 6.717c-1.93 3.217-1.93 3.217-1.073 4.83.6 1.13.86 2.127.86 3.317 0 1.22-.213 2.02-.75 2.81-.413.607-1.32 1.397-2.02 1.757s-1.923.73-2.723.82c-1.45.163-1.45.163-2.813 5.04-.75 2.683-1.363 5.117-1.363 5.41.003.293.813 1.343 1.8 2.333 1.36 1.36 1.93 2.24 2.333 3.61.297.997.537 2.153.537 2.57 0 .42-.307 1.583-.683 2.587-.41 1.093-1.147 2.233-1.837 2.84-.637.557-1.6 1.243-2.143 1.527-.933.48-.98.597-.807 2.087.1.87.323 2.63.497 3.913s.71 4.44 1.193 7.017c.877 4.683.877 4.683 3.937 4.667 2.833-.017 3.18.057 4.67.983.887.55 2.113 1.727 2.72 2.613.61.887 1.27 2.237 1.463 3 .197.763.42 1.573.497 1.803.097.293 1.037.417 3.15.417m-7.943-1.013c.68.007 1.533-.247 1.937-.573.64-.517.68-.71.35-1.583-.21-.547-.74-1.47-1.183-2.05-.45-.59-1.477-1.31-2.33-1.637-1.483-.567-1.543-.563-2.42.103-.733.557-.887.913-.82 1.937.043.69.317 1.62.607 2.063.293.443 1.007 1.013 1.59 1.267.58.253 1.603.467 2.27.473m137.657-.32c1.763 0 1.963-.07 1.963-.69 0-.377-.167-1.013-.373-1.417-.207-.4-.757-1.133-1.22-1.633-.483-.517-1.77-1.213-2.99-1.62-1.547-.517-2.243-.613-2.507-.35s-.14.85.443 2.12c.443.967 1.237 2.17 1.763 2.673.82.79 1.23.917 2.92.917m14.92-11.403c.293-.057.583-.353.643-.657.057-.303-.327-1.037-.857-1.63-.777-.87-1.13-1.037-1.823-.863-.657.167-.817.373-.683.89.097.37.63 1.05 1.18 1.517.553.463 1.247.8 1.54.743m-84.593-3.447c.153-.097.367-.657.473-1.247.107-.587-.183-3.993-.647-7.57s-1.013-7.437-1.22-8.583-.53-2.083-.723-2.083c-.23 0-.277.99-.137 2.947.113 1.623.503 4.81.867 7.083.363 2.277.76 5.37.883 6.88s.35 2.667.503 2.573m-53.699-5.265c.273-.033.55-.41.61-.84.067-.47-.187-1.097-.64-1.58-.437-.463-1.133-.8-1.653-.8-.497 0-1.073.207-1.283.46-.263.32-.28.72-.053 1.32.21.553.717.973 1.423 1.18.603.177 1.323.293 1.597.26m120.532-6.22c.263 0 .66-.393.877-.873.363-.793.303-.957-.7-1.85-.743-.663-1.377-.95-1.96-.88-.477.057-.917.26-.98.453s.423.98 1.083 1.75 1.417 1.4 1.68 1.4m-52.733-1.437c1.153-.043 1.74-.237 2-.657.283-.457.253-.663-.133-.91-.273-.177-.977-.323-1.557-.323-.58-.003-1.293-.097-1.58-.21-.41-.157-.483-.503-.327-1.583.197-1.343.187-1.36-.35-.637-.3.41-.76 1.25-1.02 1.873-.37.887-.387 1.237-.07 1.633.223.28.63.59.903.693s1.233.157 2.133.12m-90.967-5.65c1.61-.077 1.67-.117 1.77-1.14.08-.833-.16-1.35-1.113-2.407-.79-.873-1.617-1.423-2.35-1.56-.627-.117-1.53-.113-2.01.007-.817.203-.863.313-.66 1.58.12.747.437 1.67.703 2.053.27.38.827.887 1.24 1.12s1.503.39 2.42.347m168.397-8.26c.77.007 1.497-.147 1.62-.347.12-.197-.023-.993-.32-1.77s-1.023-1.88-1.617-2.447c-.593-.57-1.723-1.203-2.513-1.413-.787-.207-1.743-.28-2.12-.16-.567.18-.657.413-.51 1.317.097.603.573 1.723 1.057 2.49.483.763 1.357 1.6 1.943 1.853.583.257 1.693.47 2.46.477m-143.853-9.333c.117.007.28-.347.367-.787.083-.443.007-1.08-.17-1.417a3.8 3.8 0 0 0-.847-1.033c-.287-.23-.85-.417-1.253-.417-.407 0-.823.233-.933.517-.11.287.047.893.343 1.35.3.457.937 1.04 1.413 1.3.48.26.967.48 1.08.487m-18.709-7.319c.327 0 .677-.207.773-.463.097-.253-.047-.777-.317-1.167-.277-.393-.857-.703-1.32-.703-.46 0-.917.243-1.037.553-.133.353.063.773.547 1.167.42.337 1.027.613 1.353.613m95.057-1.333c.903 0 1.38-.2 1.757-.74.287-.407.52-1.257.52-1.887 0-.633-.37-1.78-.823-2.553-.453-.777-1.073-1.503-1.373-1.62-.37-.14-.92.183-1.677.987-.62.657-1.127 1.343-1.127 1.527s.413.287.917.227c.737-.087.937.04 1.023.647.077.55-.167.907-.913 1.333-.563.32-1.023.683-1.023.81-.003.127.33.467.737.75.407.287 1.3.52 1.983.52m-31.173-6.51c.213-.293.49-1.387.61-2.43.133-1.157.073-2.283-.16-2.893-.21-.55-.613-1.257-.897-1.57s-1.03-.74-1.657-.947-1.37-.29-1.653-.18c-.413.157-.317.39.487 1.193.73.733 1.14 1.623 1.527 3.317.29 1.277.527 2.52.527 2.77 0 .247.187.637.413.863.327.327.49.3.803-.123m61.95-.233c.823-.073 1.02-.257 1.107-1.03.087-.753-.22-1.267-1.56-2.607-1.327-1.327-1.853-1.647-2.587-1.56-.733.083-.98.34-1.213 1.247-.237.907-.167 1.31.337 2 .347.473 1.147 1.127 1.773 1.45.63.327 1.593.55 2.143.5m-28-19.997c1.1-.077 1.353-.227 1.44-.857.06-.417-.27-1.41-.737-2.207-.507-.86-1.313-1.663-2-1.99-.937-.443-1.317-.473-2.013-.157-.47.213-.853.63-.85.92s.29 1.147.63 1.903c.343.753.977 1.623 1.41 1.927.497.35 1.28.52 2.12.46m-33.713-1.4c.53-.107 1.243-.193 1.587-.193.43 0 .623-.237.62-.75-.003-.413-.267-1.07-.583-1.457-.317-.39-.983-.967-1.48-1.28-.623-.393-1.22-.503-1.92-.35-.557.123-1.147.473-1.307.78s-.17.873-.027 1.26c.147.387.69 1.037 1.207 1.443.68.533 1.207.687 1.903.547m79.713-3.623c.76-.053 1.027-.253 1.107-.827.06-.413-.07-1.29-.283-1.943-.217-.657-.823-1.68-1.35-2.28-.527-.597-1.823-1.477-2.88-1.95-1.06-.473-2.73-.967-3.713-1.097-1.773-.233-1.787-.23-1.537.563.14.437.527 1.433.857 2.207.333.777 1.25 2.057 2.037 2.843.883.883 2.067 1.647 3.097 1.993.917.307 2.117.53 2.667.49m-121.743-2.933c1.203.03 1.247-.007 1.043-.887-.117-.503-.473-1.517-.79-2.25-.313-.733-1.077-1.82-1.69-2.42-.613-.597-1.733-1.383-2.49-1.75-.79-.38-2.057-.663-2.977-.663-1.573 0-1.6.017-1.417.927.1.507.507 1.79.903 2.847.393 1.057 1.027 2.21 1.407 2.563.377.35 1.603.857 2.72 1.123 1.12.263 2.6.493 3.29.51m46.17-19.657c.667.013 1.167-.17 1.28-.467.103-.267.013-1.01-.197-1.65s-.917-1.63-1.567-2.203c-.65-.57-1.54-1.173-1.977-1.34s-1.02-.213-1.297-.107c-.28.107-.503.6-.503 1.113 0 .507.393 1.63.877 2.49.483.863 1.193 1.7 1.583 1.857s1.2.293 1.8.307"/>
</svg>
